<svg xmlns="http://www.w3.org/2000/svg" viewBox="0 0 512 512" role="img" aria-label="Jajabor AI CRM">
  <rect width="512" height="512" fill="#047857"/>
  <circle cx="256" cy="256" r="210" fill="#065f46"/>
  <path d="M144 316c34 54 84 82 150 82 40 0 72-9 96-28" fill="none" stroke="#ffffff" stroke-width="34" stroke-linecap="round"/>
  <path d="M154 134h204c18 0 32 14 32 32v118c0 18-14 32-32 32h-94l-72 58v-58h-38c-18 0-32-14-32-32V166c0-18 14-32 32-32z" fill="#ffffff"/>
  <circle cx="204" cy="226" r="22" fill="#047857"/>
  <circle cx="256" cy="226" r="22" fill="#047857"/>
  <circle cx="308" cy="226" r="22" fill="#047857"/>
</svg>
